{"asset":{"version":"2.0","generator":"Blockbench 4.8.3 glTF exporter"},"scenes":[{"nodes":[12],"name":"blockbench_export"}],"scene":0,"nodes":[{"name":"cube","mesh":0},{"name":"cube","mesh":1},{"name":"cube","mesh":2},{"name":"cube","mesh":3},{"translation":[0,-0.09375,0.125],"name":"right_eye","children":[0,1,2,3]},{"translation":[0,-0.03125,0],"name":"plane","mesh":4},{"translation":[0,-0.03125,0],"name":"circle","mesh":5},{"translation":[0,-0.03125,0],"name":"bowtie","mesh":6},{"translation":[0,-0.03125,0],"name":"inside","mesh":7},{"rotation":[0,0.3420201433256687,0,0.9396926207859084],"translation":[0,-0.03125,0],"name":"inside","mesh":8},{"translation":[0,-0.03125,0],"name":"outside","mesh":9},{"name":"BASE","children":[4,5,6,7,8,9,10]},{"children":[11]}],"bufferViews":[{"buffer":0,"byteOffset":0,"byteLength":288,"target":34962,"byteStride":12},{"buffer":0,"byteOffset":288,"byteLength":288,"target":34962,"byteStride":12},{"buffer":0,"byteOffset":576,"byteLength":192,"target":34962,"byteStride":8},{"buffer":0,"byteOffset":768,"byteLength":72,"target":34963},{"buffer":0,"byteOffset":840,"byteLength":288,"target":34962,"byteStride":12},{"buffer":0,"byteOffset":1128,"byteLength":288,"target":34962,"byteStride":12},{"buffer":0,"byteOffset":1416,"byteLength":192,"target":34962,"byteStride":8},{"buffer":0,"byteOffset":1608,"byteLength":72,"target":34963},{"buffer":0,"byteOffset":1680,"byteLength":288,"target":34962,"byteStride":12},{"buffer":0,"byteOffset":1968,"byteLength":288,"target":34962,"byteStride":12},{"buffer":0,"byteOffset":2256,"byteLength":192,"target":34962,"byteStride":8},{"buffer":0,"byteOffset":2448,"byteLength":72,"target":34963},{"buffer":0,"byteOffset":2520,"byteLength":288,"target":34962,"byteStride":12},{"buffer":0,"byteOffset":2808,"byteLength":288,"target":34962,"byteStride":12},{"buffer":0,"byteOffset":3096,"byteLength":192,"target":34962,"byteStride":8},{"buffer":0,"byteOffset":3288,"byteLength":72,"target":34963},{"buffer":0,"byteOffset":3360,"byteLength":1104,"target":34962,"byteStride":12},{"buffer":0,"byteOffset":4464,"byteLength":1104,"target":34962,"byteStride":12},{"buffer":0,"byteOffset":5568,"byteLength":736,"target":34962,"byteStride":8},{"buffer":0,"byteOffset":6304,"byteLength":240,"target":34963},{"buffer":0,"byteOffset":6544,"byteLength":744,"target":34962,"byteStride":12},{"buffer":0,"byteOffset":7288,"byteLength":744,"target":34962,"byteStride":12},{"buffer":0,"byteOffset":8032,"byteLength":496,"target":34962,"byteStride":8},{"buffer":0,"byteOffset":8528,"byteLength":180,"target":34963},{"buffer":0,"byteOffset":8708,"byteLength":1056,"target":34962,"byteStride":12},{"buffer":0,"byteOffset":9764,"byteLength":1056,"target":34962,"byteStride":12},{"buffer":0,"byteOffset":10820,"byteLength":704,"target":34962,"byteStride":8},{"buffer":0,"byteOffset":11524,"byteLength":264,"target":34963},{"buffer":0,"byteOffset":11788,"byteLength":96,"target":34962,"byteStride":12},{"buffer":0,"byteOffset":11884,"byteLength":96,"target":34962,"byteStride":12},{"buffer":0,"byteOffset":11980,"byteLength":64,"target":34962,"byteStride":8},{"buffer":0,"byteOffset":12044,"byteLength":24,"target":34963},{"buffer":0,"byteOffset":12068,"byteLength":96,"target":34962,"byteStride":12},{"buffer":0,"byteOffset":12164,"byteLength":96,"target":34962,"byteStride":12},{"buffer":0,"byteOffset":12260,"byteLength":64,"target":34962,"byteStride":8},{"buffer":0,"byteOffset":12324,"byteLength":24,"target":34963},{"buffer":0,"byteOffset":12348,"byteLength":2208,"target":34962,"byteStride":12},{"buffer":0,"byteOffset":14556,"byteLength":2208,"target":34962,"byteStride":12},{"buffer":0,"byteOffset":16764,"byteLength":1472,"target":34962,"byteStride":8},{"buffer":0,"byteOffset":18236,"byteLength":504,"target":34963},{"buffer":0,"byteOffset":18740,"byteLength":64},{"buffer":0,"byteOffset":18804,"byteLength":256}],"buffers":[{"byteLength":19060,"uri":"data:application/octet-stream;base64,"}],"accessors":[{"bufferView":0,"componentType":5126,"count":24,"max":[0.3125,1,-0.5],"min":[0.125,0.8125,-0.6875],"type":"VEC3"},{"bufferView":1,"componentType":5126,"count":24,"max":[1,1,1],"min":[-1,-1,-1],"type":"VEC3"},{"bufferView":2,"componentType":5126,"count":24,"max":[0.734375,0.734375],"min":[0.109375,0],"type":"VEC2"},{"bufferView":3,"componentType":5123,"count":36,"max":[23],"min":[0],"type":"SCALAR"},{"bufferView":4,"componentType":5126,"count":24,"max":[0.3218750059604645,1.009374976158142,-0.4906249940395355],"min":[0.11562500149011612,0.9281250238418579,-0.6968749761581421],"type":"VEC3"},{"bufferView":5,"componentType":5126,"count":24,"max":[1,1,1],"min":[-1,-1,-1],"type":"VEC3"},{"bufferView":6,"componentType":5126,"count":24,"max":[0.796875,0.765625],"min":[0.296875,0.203125],"type":"VEC2"},{"bufferView":7,"componentType":5123,"count":36,"max":[23],"min":[0],"type":"SCALAR"},{"bufferView":8,"componentType":5126,"count":24,"max":[0.28125,0.96875,-0.6905624866485596],"min":[0.15625,0.84375,-0.690625011920929],"type":"VEC3"},{"bufferView":9,"componentType":5126,"count":24,"max":[1,1,1],"min":[-1,-1,-1],"type":"VEC3"},{"bufferView":10,"componentType":5126,"count":24,"max":[0.78125,0.375],"min":[0.046875,0.15625],"type":"VEC2"},{"bufferView":11,"componentType":5123,"count":36,"max":[23],"min":[0],"type":"SCALAR"},{"bufferView":12,"componentType":5126,"count":24,"max":[0.25,0.9375,-0.6936874985694885],"min":[0.1875,0.875,-0.6937500238418579],"type":"VEC3"},{"bufferView":13,"componentType":5126,"count":24,"max":[1,1,1],"min":[-1,-1,-1],"type":"VEC3"},{"bufferView":14,"componentType":5126,"count":24,"max":[0.28125,0.265625],"min":[0,0],"type":"VEC2"},{"bufferView":15,"componentType":5123,"count":36,"max":[23],"min":[0],"type":"SCALAR"},{"bufferView":16,"componentType":5126,"count":92,"max":[0.29880431294441223,0.8125,-0.484375],"min":[-0.29880431294441223,0.53125,-0.578125],"type":"VEC3"},{"bufferView":17,"componentType":5126,"count":92,"max":[0.936329185962677,1,1],"min":[-0.936329185962677,-1,-1],"type":"VEC3"},{"bufferView":18,"componentType":5126,"count":92,"max":[0.7940624952316284,0.8125439882278442],"min":[0,0.078125],"type":"VEC2"},{"bufferView":19,"componentType":5123,"count":120,"max":[91],"min":[0],"type":"SCALAR"},{"bufferView":20,"componentType":5126,"count":62,"max":[0.5240052342414856,1,0.5],"min":[-0.5240052342414856,0.75,-0.5320888757705688],"type":"VEC3"},{"bufferView":21,"componentType":5126,"count":62,"max":[1,0,1],"min":[-0.9848077297210693,0,-0.9396926164627075],"type":"VEC3"},{"bufferView":22,"componentType":5126,"count":62,"max":[0.84375,0.75],"min":[0,0],"type":"VEC2"},{"bufferView":23,"componentType":5123,"count":90,"max":[61],"min":[0],"type":"SCALAR"},{"bufferView":24,"componentType":5126,"count":88,"max":[0.21875,0.53125,-0.5],"min":[-0.21875,0.34375,-0.5625],"type":"VEC3"},{"bufferView":25,"componentType":5126,"count":88,"max":[1,1,1],"min":[-1,-1,-1],"type":"VEC3"},{"bufferView":26,"componentType":5126,"count":88,"max":[0.78125,0.8125],"min":[0,0],"type":"VEC2"},{"bufferView":27,"componentType":5123,"count":132,"max":[87],"min":[0],"type":"SCALAR"},{"bufferView":28,"componentType":5126,"count":8,"max":[3.098641735680793e-17,1.28125,0],"min":[0,0.09375,-0.4435465931892395],"type":"VEC3"},{"bufferView":29,"componentType":5126,"count":8,"max":[-1,6.410675256960458e-33,-2.219795256631581e-17],"min":[-1,0,-9.313959067885016e-17],"type":"VEC3"},{"bufferView":30,"componentType":5126,"count":8,"max":[0.11794296652078629,0.53125],"min":[0.007057031150907278,0.234375],"type":"VEC2"},{"bufferView":31,"componentType":5123,"count":12,"max":[7],"min":[0],"type":"SCALAR"},{"bufferView":32,"componentType":5126,"count":8,"max":[3.098641735680793e-17,1.28125,0],"min":[0,0.09375,-0.4435465931892395],"type":"VEC3"},{"bufferView":33,"componentType":5126,"count":8,"max":[1,6.410675256960458e-33,9.313959067885016e-17],"min":[1,0,2.219795256631581e-17],"type":"VEC3"},{"bufferView":34,"componentType":5126,"count":8,"max":[0.2585679590702057,0.671875],"min":[0.14768202602863312,0.375],"type":"VEC2"},{"bufferView":35,"componentType":5123,"count":12,"max":[7],"min":[0],"type":"SCALAR"},{"bufferView":36,"componentType":5126,"count":184,"max":[0.4983586072921753,1.34375,0.4755282700061798],"min":[-0.4983586072921753,0.03125,-0.5060465931892395],"type":"VEC3"},{"bufferView":37,"componentType":5126,"count":184,"max":[0.9848077297210693,0.9130236506462097,1],"min":[-1,-0.9130236506462097,-0.9396926164627075],"type":"VEC3"},{"bufferView":38,"componentType":5126,"count":184,"max":[0.8418619632720947,0.8378702402114868],"min":[0,0],"type":"VEC2"},{"bufferView":39,"componentType":5123,"count":252,"max":[183],"min":[0],"type":"SCALAR"},{"bufferView":40,"componentType":5126,"count":16,"max":[1],"min":[0],"type":"SCALAR"},{"bufferView":41,"componentType":5126,"count":16,"max":[0.014642642810940742,0.000727526901755482,0.06540312618017197,1],"min":[-0.014642642810940742,-0.000727526901755482,-0.06540312618017197,0.9978589415550232],"type":"VEC4"}],"materials":[{"pbrMetallicRoughness":{"metallicFactor":0,"roughnessFactor":1,"baseColorTexture":{"index":0}},"alphaMode":"MASK","alphaCutoff":0.05,"doubleSided":true}],"textures":[{"sampler":0,"source":0,"name":"watermelon"}],"samplers":[{"magFilter":9728,"minFilter":9728,"wrapS":33071,"wrapT":33071}],"images":[{"mimeType":"image/png","uri":"data:image/png;base64,"}],"meshes":[{"primitives":[{"mode":4,"attributes":{"POSITION":0,"NORMAL":1,"TEXCOORD_0":2},"indices":3,"material":0}]},{"primitives":[{"mode":4,"attributes":{"POSITION":4,"NORMAL":5,"TEXCOORD_0":6},"indices":7,"material":0}]},{"primitives":[{"mode":4,"attributes":{"POSITION":8,"NORMAL":9,"TEXCOORD_0":10},"indices":11,"material":0}]},{"primitives":[{"mode":4,"attributes":{"POSITION":12,"NORMAL":13,"TEXCOORD_0":14},"indices":15,"material":0}]},{"primitives":[{"mode":4,"attributes":{"POSITION":16,"NORMAL":17,"TEXCOORD_0":18},"indices":19,"material":0}]},{"primitives":[{"mode":4,"attributes":{"POSITION":20,"NORMAL":21,"TEXCOORD_0":22},"indices":23,"material":0}]},{"primitives":[{"mode":4,"attributes":{"POSITION":24,"NORMAL":25,"TEXCOORD_0":26},"indices":27,"material":0}]},{"primitives":[{"mode":4,"attributes":{"POSITION":28,"NORMAL":29,"TEXCOORD_0":30},"indices":31,"material":0}]},{"primitives":[{"mode":4,"attributes":{"POSITION":32,"NORMAL":33,"TEXCOORD_0":34},"indices":35,"material":0}]},{"primitives":[{"mode":4,"attributes":{"POSITION":36,"NORMAL":37,"TEXCOORD_0":38},"indices":39,"material":0}]}],"animations":[{"name":"idle","samplers":[{"input":40,"output":41,"interpolation":"LINEAR"}],"channels":[{"sampler":0,"target":{"node":11,"path":"rotation"}}]}]}