{"asset":{"version":"2.0","generator":"Blockbench 4.8.3 glTF exporter"},"scenes":[{"nodes":[15],"name":"blockbench_export"}],"scene":0,"nodes":[{"translation":[0,-0.03125,0],"name":"plane","mesh":0},{"translation":[0,-0.03125,0],"name":"bowtie","mesh":1},{"translation":[0,-0.03125,0],"name":"outside","mesh":2},{"name":"cube","mesh":3},{"name":"cube","mesh":4},{"name":"cube","mesh":5},{"name":"cube","mesh":6},{"name":"cube","mesh":7},{"name":"cube","mesh":8},{"name":"cube","mesh":9},{"name":"cube","mesh":10},{"name":"cube","mesh":11},{"name":"cube","mesh":12},{"translation":[0,-0.09375,0.125],"name":"right_eye","children":[3,4,5,6,7,8,9,10,11,12]},{"name":"BASE","children":[0,1,2,13]},{"children":[14]}],"bufferViews":[{"buffer":0,"byteOffset":0,"byteLength":1104,"target":34962,"byteStride":12},{"buffer":0,"byteOffset":1104,"byteLength":1104,"target":34962,"byteStride":12},{"buffer":0,"byteOffset":2208,"byteLength":736,"target":34962,"byteStride":8},{"buffer":0,"byteOffset":2944,"byteLength":240,"target":34963},{"buffer":0,"byteOffset":3184,"byteLength":1056,"target":34962,"byteStride":12},{"buffer":0,"byteOffset":4240,"byteLength":1056,"target":34962,"byteStride":12},{"buffer":0,"byteOffset":5296,"byteLength":704,"target":34962,"byteStride":8},{"buffer":0,"byteOffset":6000,"byteLength":264,"target":34963},{"buffer":0,"byteOffset":6264,"byteLength":2424,"target":34962,"byteStride":12},{"buffer":0,"byteOffset":8688,"byteLength":2424,"target":34962,"byteStride":12},{"buffer":0,"byteOffset":11112,"byteLength":1616,"target":34962,"byteStride":8},{"buffer":0,"byteOffset":12728,"byteLength":552,"target":34963},{"buffer":0,"byteOffset":13280,"byteLength":288,"target":34962,"byteStride":12},{"buffer":0,"byteOffset":13568,"byteLength":288,"target":34962,"byteStride":12},{"buffer":0,"byteOffset":13856,"byteLength":192,"target":34962,"byteStride":8},{"buffer":0,"byteOffset":14048,"byteLength":72,"target":34963},{"buffer":0,"byteOffset":14120,"byteLength":288,"target":34962,"byteStride":12},{"buffer":0,"byteOffset":14408,"byteLength":288,"target":34962,"byteStride":12},{"buffer":0,"byteOffset":14696,"byteLength":192,"target":34962,"byteStride":8},{"buffer":0,"byteOffset":14888,"byteLength":72,"target":34963},{"buffer":0,"byteOffset":14960,"byteLength":288,"target":34962,"byteStride":12},{"buffer":0,"byteOffset":15248,"byteLength":288,"target":34962,"byteStride":12},{"buffer":0,"byteOffset":15536,"byteLength":192,"target":34962,"byteStride":8},{"buffer":0,"byteOffset":15728,"byteLength":72,"target":34963},{"buffer":0,"byteOffset":15800,"byteLength":288,"target":34962,"byteStride":12},{"buffer":0,"byteOffset":16088,"byteLength":288,"target":34962,"byteStride":12},{"buffer":0,"byteOffset":16376,"byteLength":192,"target":34962,"byteStride":8},{"buffer":0,"byteOffset":16568,"byteLength":72,"target":34963},{"buffer":0,"byteOffset":16640,"byteLength":288,"target":34962,"byteStride":12},{"buffer":0,"byteOffset":16928,"byteLength":288,"target":34962,"byteStride":12},{"buffer":0,"byteOffset":17216,"byteLength":192,"target":34962,"byteStride":8},{"buffer":0,"byteOffset":17408,"byteLength":72,"target":34963},{"buffer":0,"byteOffset":17480,"byteLength":288,"target":34962,"byteStride":12},{"buffer":0,"byteOffset":17768,"byteLength":288,"target":34962,"byteStride":12},{"buffer":0,"byteOffset":18056,"byteLength":192,"target":34962,"byteStride":8},{"buffer":0,"byteOffset":18248,"byteLength":72,"target":34963},{"buffer":0,"byteOffset":18320,"byteLength":288,"target":34962,"byteStride":12},{"buffer":0,"byteOffset":18608,"byteLength":288,"target":34962,"byteStride":12},{"buffer":0,"byteOffset":18896,"byteLength":192,"target":34962,"byteStride":8},{"buffer":0,"byteOffset":19088,"byteLength":72,"target":34963},{"buffer":0,"byteOffset":19160,"byteLength":288,"target":34962,"byteStride":12},{"buffer":0,"byteOffset":19448,"byteLength":288,"target":34962,"byteStride":12},{"buffer":0,"byteOffset":19736,"byteLength":192,"target":34962,"byteStride":8},{"buffer":0,"byteOffset":19928,"byteLength":72,"target":34963},{"buffer":0,"byteOffset":20000,"byteLength":288,"target":34962,"byteStride":12},{"buffer":0,"byteOffset":20288,"byteLength":288,"target":34962,"byteStride":12},{"buffer":0,"byteOffset":20576,"byteLength":192,"target":34962,"byteStride":8},{"buffer":0,"byteOffset":20768,"byteLength":72,"target":34963},{"buffer":0,"byteOffset":20840,"byteLength":288,"target":34962,"byteStride":12},{"buffer":0,"byteOffset":21128,"byteLength":288,"target":34962,"byteStride":12},{"buffer":0,"byteOffset":21416,"byteLength":192,"target":34962,"byteStride":8},{"buffer":0,"byteOffset":21608,"byteLength":72,"target":34963},{"buffer":0,"byteOffset":21680,"byteLength":64},{"buffer":0,"byteOffset":21744,"byteLength":256}],"buffers":[{"byteLength":22000,"uri":"data:application/octet-stream;base64,"}],"accessors":[{"bufferView":0,"componentType":5126,"count":92,"max":[0.29880431294441223,0.8125,-0.484375],"min":[-0.29880431294441223,0.53125,-0.578125],"type":"VEC3"},{"bufferView":1,"componentType":5126,"count":92,"max":[0.936329185962677,1,1],"min":[-0.936329185962677,-1,-1],"type":"VEC3"},{"bufferView":2,"componentType":5126,"count":92,"max":[0.7940624952316284,0.8125439882278442],"min":[0,0.078125],"type":"VEC2"},{"bufferView":3,"componentType":5123,"count":120,"max":[91],"min":[0],"type":"SCALAR"},{"bufferView":4,"componentType":5126,"count":88,"max":[0.21875,0.53125,-0.5],"min":[-0.21875,0.34375,-0.5625],"type":"VEC3"},{"bufferView":5,"componentType":5126,"count":88,"max":[1,1,1],"min":[-1,-1,-1],"type":"VEC3"},{"bufferView":6,"componentType":5126,"count":88,"max":[0.78125,0.8125],"min":[0,0],"type":"VEC2"},{"bufferView":7,"componentType":5123,"count":132,"max":[87],"min":[0],"type":"SCALAR"},{"bufferView":8,"componentType":5126,"count":202,"max":[0.4983586072921753,1.34375,0.4755282700061798],"min":[-0.4983586072921753,0.03125,-0.5060465931892395],"type":"VEC3"},{"bufferView":9,"componentType":5126,"count":202,"max":[1,0.9130236506462097,1],"min":[-1,-0.9130236506462097,-0.9396926164627075],"type":"VEC3"},{"bufferView":10,"componentType":5126,"count":202,"max":[0.810255229473114,0.8338249921798706],"min":[0,0.003002166748046875],"type":"VEC2"},{"bufferView":11,"componentType":5123,"count":276,"max":[201],"min":[0],"type":"SCALAR"},{"bufferView":12,"componentType":5126,"count":24,"max":[0.3125,1,-0.5],"min":[0.125,0.8125,-0.6875],"type":"VEC3"},{"bufferView":13,"componentType":5126,"count":24,"max":[1,1,1],"min":[-1,-1,-1],"type":"VEC3"},{"bufferView":14,"componentType":5126,"count":24,"max":[0.734375,0.734375],"min":[0.109375,0],"type":"VEC2"},{"bufferView":15,"componentType":5123,"count":36,"max":[23],"min":[0],"type":"SCALAR"},{"bufferView":16,"componentType":5126,"count":24,"max":[0.3218750059604645,1.009374976158142,-0.4906249940395355],"min":[0.11562500149011612,0.9281250238418579,-0.6968749761581421],"type":"VEC3"},{"bufferView":17,"componentType":5126,"count":24,"max":[1,1,1],"min":[-1,-1,-1],"type":"VEC3"},{"bufferView":18,"componentType":5126,"count":24,"max":[0.796875,0.765625],"min":[0.296875,0.203125],"type":"VEC2"},{"bufferView":19,"componentType":5123,"count":36,"max":[23],"min":[0],"type":"SCALAR"},{"bufferView":20,"componentType":5126,"count":24,"max":[0.28125,0.96875,-0.6905624866485596],"min":[0.15625,0.84375,-0.690625011920929],"type":"VEC3"},{"bufferView":21,"componentType":5126,"count":24,"max":[1,1,1],"min":[-1,-1,-1],"type":"VEC3"},{"bufferView":22,"componentType":5126,"count":24,"max":[0.78125,0.375],"min":[0.046875,0.15625],"type":"VEC2"},{"bufferView":23,"componentType":5123,"count":36,"max":[23],"min":[0],"type":"SCALAR"},{"bufferView":24,"componentType":5126,"count":24,"max":[0.25,0.9375,-0.6936874985694885],"min":[0.1875,0.875,-0.6937500238418579],"type":"VEC3"},{"bufferView":25,"componentType":5126,"count":24,"max":[1,1,1],"min":[-1,-1,-1],"type":"VEC3"},{"bufferView":26,"componentType":5126,"count":24,"max":[0.28125,0.265625],"min":[0,0],"type":"VEC2"},{"bufferView":27,"componentType":5123,"count":36,"max":[23],"min":[0],"type":"SCALAR"},{"bufferView":28,"componentType":5126,"count":24,"max":[-0.15625,0.96875,-0.6905624866485596],"min":[-0.28125,0.84375,-0.690625011920929],"type":"VEC3"},{"bufferView":29,"componentType":5126,"count":24,"max":[1,1,1],"min":[-1,-1,-1],"type":"VEC3"},{"bufferView":30,"componentType":5126,"count":24,"max":[0.78125,0.375],"min":[0.046875,0.15625],"type":"VEC2"},{"bufferView":31,"componentType":5123,"count":36,"max":[23],"min":[0],"type":"SCALAR"},{"bufferView":32,"componentType":5126,"count":24,"max":[-0.11562500149011612,1.009374976158142,-0.4906249940395355],"min":[-0.3218750059604645,0.9281250238418579,-0.6968749761581421],"type":"VEC3"},{"bufferView":33,"componentType":5126,"count":24,"max":[1,1,1],"min":[-1,-1,-1],"type":"VEC3"},{"bufferView":34,"componentType":5126,"count":24,"max":[0.796875,0.765625],"min":[0.296875,0.203125],"type":"VEC2"},{"bufferView":35,"componentType":5123,"count":36,"max":[23],"min":[0],"type":"SCALAR"},{"bufferView":36,"componentType":5126,"count":24,"max":[0.28125,0.96875,-0.6905624866485596],"min":[0.15625,0.84375,-0.690625011920929],"type":"VEC3"},{"bufferView":37,"componentType":5126,"count":24,"max":[1,1,1],"min":[-1,-1,-1],"type":"VEC3"},{"bufferView":38,"componentType":5126,"count":24,"max":[0.78125,0.375],"min":[0.046875,0.15625],"type":"VEC2"},{"bufferView":39,"componentType":5123,"count":36,"max":[23],"min":[0],"type":"SCALAR"},{"bufferView":40,"componentType":5126,"count":24,"max":[0.3218750059604645,1.009374976158142,-0.4906249940395355],"min":[0.11562500149011612,0.9281250238418579,-0.6968749761581421],"type":"VEC3"},{"bufferView":41,"componentType":5126,"count":24,"max":[1,1,1],"min":[-1,-1,-1],"type":"VEC3"},{"bufferView":42,"componentType":5126,"count":24,"max":[0.796875,0.765625],"min":[0.296875,0.203125],"type":"VEC2"},{"bufferView":43,"componentType":5123,"count":36,"max":[23],"min":[0],"type":"SCALAR"},{"bufferView":44,"componentType":5126,"count":24,"max":[-0.125,1,-0.5],"min":[-0.3125,0.8125,-0.6875],"type":"VEC3"},{"bufferView":45,"componentType":5126,"count":24,"max":[1,1,1],"min":[-1,-1,-1],"type":"VEC3"},{"bufferView":46,"componentType":5126,"count":24,"max":[0.734375,0.734375],"min":[0.109375,0],"type":"VEC2"},{"bufferView":47,"componentType":5123,"count":36,"max":[23],"min":[0],"type":"SCALAR"},{"bufferView":48,"componentType":5126,"count":24,"max":[-0.1875,0.9375,-0.6936874985694885],"min":[-0.25,0.875,-0.6937500238418579],"type":"VEC3"},{"bufferView":49,"componentType":5126,"count":24,"max":[1,1,1],"min":[-1,-1,-1],"type":"VEC3"},{"bufferView":50,"componentType":5126,"count":24,"max":[0.28125,0.265625],"min":[0,0],"type":"VEC2"},{"bufferView":51,"componentType":5123,"count":36,"max":[23],"min":[0],"type":"SCALAR"},{"bufferView":52,"componentType":5126,"count":16,"max":[1],"min":[0],"type":"SCALAR"},{"bufferView":53,"componentType":5126,"count":16,"max":[0.014642642810940742,0.000727526901755482,0.06540312618017197,1],"min":[-0.014642642810940742,-0.000727526901755482,-0.06540312618017197,0.9978589415550232],"type":"VEC4"}],"materials":[{"pbrMetallicRoughness":{"metallicFactor":0,"roughnessFactor":1,"baseColorTexture":{"index":0}},"alphaMode":"MASK","alphaCutoff":0.05,"doubleSided":true}],"textures":[{"sampler":0,"source":0,"name":"watermelon"}],"samplers":[{"magFilter":9728,"minFilter":9728,"wrapS":33071,"wrapT":33071}],"images":[{"mimeType":"image/png","uri":"data:image/png;base64,"}],"meshes":[{"primitives":[{"mode":4,"attributes":{"POSITION":0,"NORMAL":1,"TEXCOORD_0":2},"indices":3,"material":0}]},{"primitives":[{"mode":4,"attributes":{"POSITION":4,"NORMAL":5,"TEXCOORD_0":6},"indices":7,"material":0}]},{"primitives":[{"mode":4,"attributes":{"POSITION":8,"NORMAL":9,"TEXCOORD_0":10},"indices":11,"material":0}]},{"primitives":[{"mode":4,"attributes":{"POSITION":12,"NORMAL":13,"TEXCOORD_0":14},"indices":15,"material":0}]},{"primitives":[{"mode":4,"attributes":{"POSITION":16,"NORMAL":17,"TEXCOORD_0":18},"indices":19,"material":0}]},{"primitives":[{"mode":4,"attributes":{"POSITION":20,"NORMAL":21,"TEXCOORD_0":22},"indices":23,"material":0}]},{"primitives":[{"mode":4,"attributes":{"POSITION":24,"NORMAL":25,"TEXCOORD_0":26},"indices":27,"material":0}]},{"primitives":[{"mode":4,"attributes":{"POSITION":28,"NORMAL":29,"TEXCOORD_0":30},"indices":31,"material":0}]},{"primitives":[{"mode":4,"attributes":{"POSITION":32,"NORMAL":33,"TEXCOORD_0":34},"indices":35,"material":0}]},{"primitives":[{"mode":4,"attributes":{"POSITION":36,"NORMAL":37,"TEXCOORD_0":38},"indices":39,"material":0}]},{"primitives":[{"mode":4,"attributes":{"POSITION":40,"NORMAL":41,"TEXCOORD_0":42},"indices":43,"material":0}]},{"primitives":[{"mode":4,"attributes":{"POSITION":44,"NORMAL":45,"TEXCOORD_0":46},"indices":47,"material":0}]},{"primitives":[{"mode":4,"attributes":{"POSITION":48,"NORMAL":49,"TEXCOORD_0":50},"indices":51,"material":0}]}],"animations":[{"name":"idle","samplers":[{"input":52,"output":53,"interpolation":"LINEAR"}],"channels":[{"sampler":0,"target":{"node":14,"path":"rotation"}}]}]}